<svg xmlns="http://www.w3.org/2000/svg" xmlns:xlink="http://www.w3.org/1999/xlink" width="84.371" height="82" viewBox="0 0 84.371 82">
  <defs>
    <clipPath id="clip-path">
      <rect width="84.371" height="82" fill="none"/>
    </clipPath>
    <clipPath id="clip-path-2">
      <rect width="84" height="84" fill="none"/>
    </clipPath>
  </defs>
  <g id="Grupo_1208461" data-name="Grupo 1208461" transform="translate(-726.396 -2831.883)">
    <g id="Grupo_1208460" data-name="Grupo 1208460">
      <g id="Grupo_1208459" data-name="Grupo 1208459">
        <g id="Grupo_de_desplazamiento_2" data-name="Grupo de desplazamiento 2" transform="translate(726.396 2831.883)" clip-path="url(#clip-path)" style="isolation: isolate">
          <g id="Grupo_1208458" data-name="Grupo 1208458" transform="translate(-726.396 -2831.883)">
            <rect id="Rectángulo_454933" data-name="Rectángulo 454933" width="94" height="81.3" transform="translate(726.768 2831.883)" fill="none"/>
            <g id="Grupo_1208457" data-name="Grupo 1208457">
              <g id="Grupo_1208456" data-name="Grupo 1208456">
                <g id="Grupo_1208455" data-name="Grupo 1208455">
                  <g id="Grupo_de_desplazamiento_1" data-name="Grupo de desplazamiento 1" transform="translate(726.396 2831.883)" clip-path="url(#clip-path-2)" style="isolation: isolate">
                    <g id="Grupo_1208454" data-name="Grupo 1208454" transform="translate(-726.396 -2831.883)">
                      <g id="Grupo_1208453" data-name="Grupo 1208453">
                        <rect id="Rectángulo_455583" data-name="Rectángulo 455583" width="84" height="84" rx="14" transform="translate(726.396 2831.883)" fill="#afd4f1"/>
                      </g>
                    </g>
                  </g>
                </g>
              </g>
            </g>
            <g id="Layer_12" data-name="Layer 12" transform="translate(737.396 2840.522)">
              <path id="Trazado_1283701" data-name="Trazado 1283701" d="M60,36.54C60,46.17,53.5,54,45.5,54c-6.06,0-11.26-4.49-13.42-10.86A20.25,20.25,0,0,1,31,36.54c0-9.34,13.17-25.49,13.73-26.17a1,1,0,0,1,1.54,0c.13.16.95,1.17,2.14,2.74a.24.24,0,0,1,.06.09C52.37,18.37,60,29.43,60,36.54Z" fill="#56cbf0"/>
              <path id="Trazado_1283702" data-name="Trazado 1283702" d="M54.5,28.53C54.5,38.16,48,46,40,46a12.72,12.72,0,0,1-7.92-2.85A20.25,20.25,0,0,1,31,36.54c0-9.34,13.17-25.49,13.73-26.17a1,1,0,0,1,1.54,0c.13.16.95,1.17,2.14,2.74a.24.24,0,0,1,.06.09c3.14,5.08,6.03,10.95,6.03,15.33Z" fill="#56cbf0"/>
              <path id="Trazado_1283703" data-name="Trazado 1283703" d="M41.79,22.19a1,1,0,0,0-1.39.24c-.24.35-.47.68-.69,1a1.005,1.005,0,1,0,1.67,1.12l.65-1a1,1,0,0,0-.24-1.36Z" fill="#e2e2e2"/>
              <path id="Trazado_1283704" data-name="Trazado 1283704" d="M39.85,25.08a1,1,0,0,0-1.37.38c-7.4,13.17-.59,21.82-.29,22.18a1.017,1.017,0,1,0,1.59-1.27c-.06-.08-6.26-8,.49-19.94a1,1,0,0,0-.42-1.35Z" fill="#e2e2e2"/>
              <rect id="Rectángulo_458032" data-name="Rectángulo 458032" width="26" height="56" rx="1" transform="translate(4.02 4.02)" fill="#e2b46a"/>
              <path id="Trazado_1283705" data-name="Trazado 1283705" d="M21.39,12.31V46.73a2.52,2.52,0,0,1,0,.48,1,1,0,0,1-1,.81H13.83a1,1,0,0,1-1-.81,1.91,1.91,0,0,1,0-.48V12.31a4.3,4.3,0,0,1,3.08-4.12A4.21,4.21,0,0,1,17.1,8a4.3,4.3,0,0,1,4.29,4.29Z" fill="#efefef"/>
              <path id="Trazado_1283706" data-name="Trazado 1283706" d="M20.62,12.46V46.88a2.52,2.52,0,0,1,0,.48,1,1,0,0,1-.45.66h-6.3a1,1,0,0,1-1-.81,1.91,1.91,0,0,1,0-.48V12.31a4.3,4.3,0,0,1,3.08-4.12h.41a4.28,4.28,0,0,1,4.29,4.29Z" fill="#e2e2e2"/>
              <path id="Trazado_1283707" data-name="Trazado 1283707" d="M25.6,48.78v.48a1.93,1.93,0,0,1,0,.24A2.78,2.78,0,0,1,22.84,52H11.6a3,3,0,0,1-2.95-2.51A2,2,0,0,1,8.6,49a3,3,0,0,1,3-3H22.84A2.77,2.77,0,0,1,25.6,48.78Z" fill="#e2e2e2"/>
              <path id="Trazado_1283708" data-name="Trazado 1283708" d="M25.59,49.38A2.83,2.83,0,0,1,22.84,52H11.6a3,3,0,0,1-2.95-2.63,3.12,3.12,0,0,1,.84-1.7,2.87,2.87,0,0,1,2.11-.91H22.84a2.83,2.83,0,0,1,2.75,2.62Z" fill="#d3d3d2"/>
              <path id="Trazado_1283709" data-name="Trazado 1283709" d="M25.6,52.78v.48a1.93,1.93,0,0,1,0,.24A2.78,2.78,0,0,1,22.84,56H11.6a3,3,0,0,1-2.95-2.51A2,2,0,0,1,8.6,53a3,3,0,0,1,3-3H22.84A2.77,2.77,0,0,1,25.6,52.78Z" fill="#e2e2e2"/>
              <path id="Trazado_1283710" data-name="Trazado 1283710" d="M25.59,53.38A2.83,2.83,0,0,1,22.84,56H11.6a3,3,0,0,1-2.95-2.63,3.12,3.12,0,0,1,.84-1.7,2.87,2.87,0,0,1,2.11-.91H22.84a2.83,2.83,0,0,1,2.75,2.62Z" fill="#d3d3d2"/>
              <path id="Trazado_1283711" data-name="Trazado 1283711" d="M30,17v2H24.2a1.08,1.08,0,0,1-1.1-.85.39.39,0,0,1,0-.15,1.07,1.07,0,0,1,1.12-1H30Z" fill="#9f8446"/>
              <path id="Trazado_1283712" data-name="Trazado 1283712" d="M30,17.34V19H24.2a1.08,1.08,0,0,1-1.1-.85,1.08,1.08,0,0,1,1.1-.85h5.6Z" fill="#876518"/>
              <path id="Trazado_1283713" data-name="Trazado 1283713" d="M18.1,23V46h-2V23a1,1,0,0,1,2,0Z" fill="#fcd700"/>
              <path id="Trazado_1283714" data-name="Trazado 1283714" d="M17.33,23.57V46h-.57V23.57c0-.54.13-1,.28-1s.29.43.29,1Z" fill="#f4ee7d"/>
              <path id="Trazado_1283715" data-name="Trazado 1283715" d="M30,22v2H24.2a1.08,1.08,0,0,1-1.1-.85.39.39,0,0,1,0-.15,1.07,1.07,0,0,1,1.12-1H30Z" fill="#9f8446"/>
              <path id="Trazado_1283716" data-name="Trazado 1283716" d="M30,22.34V24H24.2a1.08,1.08,0,0,1-1.1-.85,1.08,1.08,0,0,1,1.1-.85h5.6Z" fill="#876518"/>
              <path id="Trazado_1283717" data-name="Trazado 1283717" d="M30,37v2H24.2a1.08,1.08,0,0,1-1.1-.85.39.39,0,0,1,0-.15,1.07,1.07,0,0,1,1.12-1H30Z" fill="#9f8446"/>
              <path id="Trazado_1283718" data-name="Trazado 1283718" d="M30,37.34V39H24.2a1.08,1.08,0,0,1-1.1-.85,1.08,1.08,0,0,1,1.1-.85h5.6Z" fill="#876518"/>
              <path id="Trazado_1283719" data-name="Trazado 1283719" d="M30,27v2H24.2a1.08,1.08,0,0,1-1.1-.85.39.39,0,0,1,0-.15,1.07,1.07,0,0,1,1.12-1H30Z" fill="#9f8446"/>
              <path id="Trazado_1283720" data-name="Trazado 1283720" d="M30,27.34V29H24.2a1.08,1.08,0,0,1-1.1-.85,1.08,1.08,0,0,1,1.1-.85h5.6Z" fill="#876518"/>
              <path id="Trazado_1283721" data-name="Trazado 1283721" d="M30,32v2H24.2a1.08,1.08,0,0,1-1.1-.85.39.39,0,0,1,0-.15,1.07,1.07,0,0,1,1.12-1H30Z" fill="#9f8446"/>
              <path id="Trazado_1283722" data-name="Trazado 1283722" d="M30,32.34V34H24.2a1.08,1.08,0,0,1-1.1-.85,1.08,1.08,0,0,1,1.1-.85h5.6Z" fill="#876518"/>
              <path id="Trazado_1283723" data-name="Trazado 1283723" d="M4,17v2H9.8a1.08,1.08,0,0,0,1.1-.85.39.39,0,0,0,0-.15,1.07,1.07,0,0,0-1.12-1H4Z" fill="#9f8446"/>
              <path id="Trazado_1283724" data-name="Trazado 1283724" d="M4,17.34V19H9.8a1.08,1.08,0,0,0,1.1-.85,1.08,1.08,0,0,0-1.1-.85H4.22Z" fill="#876518"/>
              <path id="Trazado_1283725" data-name="Trazado 1283725" d="M4,22v2H9.8a1.08,1.08,0,0,0,1.1-.85.39.39,0,0,0,0-.15,1.07,1.07,0,0,0-1.12-1H4Z" fill="#9f8446"/>
              <path id="Trazado_1283726" data-name="Trazado 1283726" d="M4,22.34V24H9.8a1.08,1.08,0,0,0,1.1-.85,1.08,1.08,0,0,0-1.1-.85H4.22Z" fill="#876518"/>
              <path id="Trazado_1283727" data-name="Trazado 1283727" d="M4,37v2H9.8a1.08,1.08,0,0,0,1.1-.85.39.39,0,0,0,0-.15,1.07,1.07,0,0,0-1.12-1H4Z" fill="#9f8446"/>
              <path id="Trazado_1283728" data-name="Trazado 1283728" d="M4,37.34V39H9.8a1.08,1.08,0,0,0,1.1-.85,1.08,1.08,0,0,0-1.1-.85H4.22Z" fill="#876518"/>
              <path id="Trazado_1283729" data-name="Trazado 1283729" d="M4,27v2H9.8a1.08,1.08,0,0,0,1.1-.85.39.39,0,0,0,0-.15,1.07,1.07,0,0,0-1.12-1H4Z" fill="#9f8446"/>
              <path id="Trazado_1283730" data-name="Trazado 1283730" d="M4,27.34V29H9.8a1.08,1.08,0,0,0,1.1-.85,1.08,1.08,0,0,0-1.1-.85H4.22Z" fill="#876518"/>
              <path id="Trazado_1283731" data-name="Trazado 1283731" d="M4,32v2H9.8a1.08,1.08,0,0,0,1.1-.85.39.39,0,0,0,0-.15,1.07,1.07,0,0,0-1.12-1H4Z" fill="#9f8446"/>
              <path id="Trazado_1283732" data-name="Trazado 1283732" d="M4,32.34V34H9.8a1.08,1.08,0,0,0,1.1-.85,1.08,1.08,0,0,0-1.1-.85H4.22Z" fill="#876518"/>
              <path id="Trazado_1283733" data-name="Trazado 1283733" d="M46.27,10.37a1,1,0,0,0-1.54,0C44.17,11.05,31,27.2,31,36.54,31,46.17,37.5,54,45.5,54S60,46.17,60,36.54c0-9.34-13.17-25.49-13.73-26.17ZM45.5,52C38.61,52,33,45.06,33,36.54c0-7.4,9.66-20.3,12.5-23.93C48.34,16.23,58,29.14,58,36.54,58,45.06,52.39,52,45.5,52ZM29,4H5A1,1,0,0,0,4,5V59a1,1,0,0,0,1,1H29a1,1,0,0,0,1-1V5A1,1,0,0,0,29,4ZM28,17H24a1,1,0,0,0,0,2h4v3H24a1,1,0,0,0,0,2h4v3H24a1,1,0,0,0,0,2h4v3H24a1,1,0,0,0,0,2h4v3H24a1,1,0,0,0,0,2h4V58H6V39h4a1,1,0,0,0,0-2H6V34h4a1,1,0,0,0,0-2H6V29h4a1,1,0,0,0,0-2H6V24h4a1,1,0,0,0,0-2H6V19h4a1,1,0,0,0,0-2H6V6H28ZM8.5,49a3,3,0,0,0,.78,2,2.987,2.987,0,0,0,2.22,5H22.74a2.77,2.77,0,0,0,2.76-2.76v-.48A2.74,2.74,0,0,0,24.85,51a2.74,2.74,0,0,0,.65-1.76v-.48A2.77,2.77,0,0,0,22.74,46H21.29V12.29a4.29,4.29,0,0,0-8.58,0V46H11.5a3,3,0,0,0-3,3Zm6.21-36.71a2.29,2.29,0,1,1,4.58,0V46H18V23a1,1,0,0,0-2,0V46H14.71Zm-3.9,36A.93.93,0,0,1,11.5,48H22.74a.76.76,0,0,1,.76.76v.48a.76.76,0,0,1-.76.76H11.5a.99.99,0,0,1-.69-1.71ZM11.5,52H22.74a.76.76,0,0,1,.76.76v.48a.76.76,0,0,1-.76.76H11.5a1,1,0,0,1,0-2ZM41.79,22.19A1,1,0,0,1,42,23.58l-.65,1a1,1,0,1,1-1.67-1.1c.22-.34.45-.67.69-1a1,1,0,0,1,1.42-.29Zm-1.56,4.25c-6.75,12-.55,19.86-.49,19.94a.98.98,0,1,1-1.51,1.25c-.3-.36-7.11-9,.29-22.18a1.008,1.008,0,0,1,1.75,1Z"/>
            </g>
          </g>
        </g>
      </g>
    </g>
  </g>
</svg>
